<?xml version="1.0" encoding="iso-8859-1"?>
<!-- Generator: Adobe Illustrator 19.0.0, SVG Export Plug-In . SVG Version: 6.00 Build 0)  -->
<svg version="1.1" id="Layer_1" xmlns="http://www.w3.org/2000/svg" xmlns:xlink="http://www.w3.org/1999/xlink" x="0px" y="0px"
	 viewBox="0 0 511.999 511.999" style="enable-background:new 0 0 511.999 511.999;" xml:space="preserve">
<path style="fill:#AFD5FF;" d="M241.961,186.493h85.576c46.696,0,61.259,15.576,116.526,62.625
	c8.062,6.863,15.145,14.381,22.311,20.915c39.042,35.607,44.784,36.917,45.532,70.534c0.169,7.608,0.063,24.381,0.021,35.172
	c-0.027,6.133-0.069,13.165-0.069,22.301c0,11.892-10.984,21.711-24.785,22.547l-144.12,0.058h-82.645l-92.159-0.05
	c-10.333-0.577-19.112-6.193-22.913-13.951c-1.297-2.655-2.018-5.562-2.018-8.604V219.478c0-18.523,15.077-33.506,33.599-33.39
	L241.961,186.493z"/>
<path style="fill:#95B8C2;" d="M143.22,256v-36.521c0-18.523,15.077-33.506,33.599-33.391l65.142,0.406h85.576
	c46.696,0,61.259,15.575,116.526,62.625c2.633,2.242,5.156,4.556,7.618,6.88H143.22V256z"/>
<path style="fill:#5B7F99;" d="M143.22,304.154v-84.677c0-18.523,15.077-33.506,33.599-33.39l56.234,0.351
	C222.668,238.072,188.749,281.327,143.22,304.154z"/>
<path style="fill:#DC2C13;" d="M511.906,340.569c0.169,7.608,0.063,24.381,0.021,35.172c-0.027,6.133-0.069,13.165-0.069,22.301
	c0,11.892-10.984,21.711-24.785,22.547l-144.12,0.058h-82.645l-92.159-0.05c-10.333-0.578-19.112-6.193-22.913-13.951
	c-1.297-2.655-2.018-5.562-2.018-8.604V219.478c0-18.523,15.077-33.506,33.599-33.391l8.757,0.055
	c31.102,38.815,110.815,130.472,122.695,130.472h148.634h48.857h3.145C510.953,322.816,511.675,330.133,511.906,340.569z"/>
<path style="fill:#B21100;" d="M511.882,386.226c-0.013,3.547-0.023,7.434-0.023,11.816c0,11.892-10.984,21.711-24.785,22.547
	l-144.12,0.058h-82.645l-92.159-0.05c-10.333-0.578-19.112-6.193-22.913-13.951c-1.297-2.655-2.018-5.562-2.018-8.604v-11.816
	H511.882z"/>
<path style="fill:#651100;" d="M229.535,316.612c0,5.533-4.484,10.017-10.017,10.017h-13.944c-5.533,0-10.017-4.484-10.017-10.017
	c0-5.533,4.484-10.017,10.017-10.017h13.944C225.05,306.594,229.535,311.079,229.535,316.612z"/>
<path style="fill:#234556;" d="M260.31,420.648c0,25.862-20.63,46.83-46.081,46.83s-46.081-20.969-46.081-46.83
	c0-25.866,20.63-46.829,46.081-46.829C239.678,373.819,260.31,394.783,260.31,420.648z M440.993,373.819
	c-25.451,0-46.081,20.963-46.081,46.829c0,25.862,20.63,46.83,46.081,46.83c25.451,0,46.081-20.969,46.081-46.83
	C487.074,394.783,466.444,373.819,440.993,373.819z"/>
<path style="fill:#95B8C2;" d="M224.262,420.648c0,5.533-4.484,10.017-10.017,10.017c-5.533,0-10.036-4.484-10.036-10.017
	c0-5.533,4.467-10.017,9.998-10.017h0.038C219.777,410.63,224.262,415.116,224.262,420.648z M441.009,410.63h-0.031
	c-5.533,0-10.002,4.484-10.002,10.017c0,5.533,4.5,10.017,10.033,10.017c5.533,0,10.017-4.484,10.017-10.017
	C451.026,415.115,446.542,410.63,441.009,410.63z"/>
<path style="fill:#B21100;" d="M143.22,304.154v-84.677c0-18.523,15.077-33.506,33.599-33.39l8.757,0.055
	c8.474,10.575,20.559,25.075,33.894,40.573C203.219,260.225,176.284,287.578,143.22,304.154z"/>
<path style="fill:#E69724;" d="M197.421,77.355v77.453c0,59.612-42.8,109.555-98.708,119.661C42.8,264.363,0,214.422,0,154.81
	V77.316c0-18.113,44.193-32.795,98.712-32.795c54.515,0,98.71,14.682,98.71,32.795L197.421,77.355L197.421,77.355z"/>
<path style="fill:#DA6D18;" d="M197.423,77.316l-0.002,0.039v77.453c0,59.612-42.8,109.555-98.709,119.661c0,0,0,0-0.001,0V44.521
	h0.001C153.228,44.521,197.423,59.204,197.423,77.316z"/>
<path style="fill:#789EBD;" d="M85.24,356.258H22.116c-5.533,0-10.017-4.484-10.017-10.017c0-5.533,4.484-10.017,10.017-10.017
	H85.24c5.533,0,10.017,4.484,10.017,10.017C95.258,351.774,90.773,356.258,85.24,356.258z M85.24,381.47H57.012
	c-5.533,0-10.017,4.484-10.017,10.017c0,5.533,4.484,10.017,10.017,10.017H85.24c5.533,0,10.017-4.484,10.017-10.017
	C95.258,385.954,90.773,381.47,85.24,381.47z"/>
<g>
</g>
<g>
</g>
<g>
</g>
<g>
</g>
<g>
</g>
<g>
</g>
<g>
</g>
<g>
</g>
<g>
</g>
<g>
</g>
<g>
</g>
<g>
</g>
<g>
</g>
<g>
</g>
<g>
</g>
</svg>
