<svg height="512pt" viewBox="0 0 512 512" width="512pt" xmlns="http://www.w3.org/2000/svg"><path d="m423.402344 302h-335.804688l-87.597656 210h512zm0 0" fill="#9ed0ff"/><path d="m512 512h-256v-210h167.402344zm0 0" fill="#73bcff"/><path d="m403.597656 332h-296.195312l-62.402344 150h421zm0 0" fill="#3aaaff"/><path d="m466 482h-210v-150h147.597656zm0 0" fill="#0095ff"/><path d="m256 0c-74.398438 0-135 61.597656-135 136 0 25.5 7.199219 51.398438 20.699219 73l114.300781 181.199219 114.300781-181.199219c13.5-21.601562 20.699219-47.5 20.699219-73 0-74.402344-60.601562-136-135-136zm0 212c-41.398438 0-75-34.601562-75-76s33.601562-76 75-76 75 34.601562 75 76-33.601562 76-75 76zm0 0" fill="#ff9f00"/><path d="m177.382812 315.140625 29.765626 3.71875-22.496094 180.003906-29.765625-3.71875zm0 0" fill="#9ed0ff"/><path d="m327.265625 498.902344-23.074219-180 29.769532-3.804688 23.070312 180zm0 0" fill="#73bcff"/><path d="m67.5 392h376v30h-376zm0 0" fill="#9ed0ff"/><path d="m391 136c0 25.5-7.199219 51.398438-20.699219 73l-114.300781 181.199219v-178.199219c41.398438 0 75-34.601562 75-76s-33.601562-76-75-76v-60c74.398438 0 135 61.597656 135 136zm0 0" fill="#ff7816"/><path d="m256 392h187.5v30h-187.5zm0 0" fill="#73bcff"/></svg>