<?xml version="1.0" encoding="iso-8859-1"?>
<!-- Generator: Adobe Illustrator 19.0.0, SVG Export Plug-In . SVG Version: 6.00 Build 0)  -->
<svg version="1.1" id="Capa_1" xmlns="http://www.w3.org/2000/svg" xmlns:xlink="http://www.w3.org/1999/xlink" x="0px" y="0px"
	 viewBox="0 0 511.88 511.88" style="enable-background:new 0 0 511.88 511.88;" xml:space="preserve">
<g>
	<path style="fill:#5D9CEC;" d="M219.952,159.963c71.088,0,143.321,49.586,152.35,55.987c-9.92,0-93.806,0-152.35,0v-7.999
		l-7.998-39.991l-0.078-7.92C214.512,159.963,217.234,159.963,219.952,159.963z"/>
	<path style="fill:#5D9CEC;" d="M219.952,207.952v7.999c-28.474,0-50.949,0-55.987,0c-39.991,0-55.987-31.993-55.987-31.993V173.48
		c15.117-4.237,51.188-12.638,103.897-13.438l0.078,7.92L219.952,207.952z"/>
</g>
<polygon style="fill:#ED5565;" points="51.992,231.947 12.001,247.943 12.001,223.949 "/>
<g style="opacity:0.3;">
	<polygon style="fill:#FFFFFF;" points="19.999,225.549 12.001,223.949 12.001,247.943 19.999,244.745 	"/>
</g>
<polygon style="fill:#E6E9ED;" points="443.895,247.943 497.242,247.943 507.879,263.939 459.891,255.941 "/>
<g style="opacity:0.2;">
	<polygon points="507.879,263.939 497.242,247.943 489.244,247.943 498.881,262.439 	"/>
</g>
<g>
	<path style="fill:#AAB2BD;" d="M403.904,351.919c-19.761,0-36.147-14.317-39.35-33.195c-0.484-2.234-0.641-4.476-0.641-6.796
		c0-22.072,17.918-39.99,39.99-39.99c22.073,0,39.991,17.918,39.991,39.99c0,2.32-0.156,4.562-0.641,6.796
		C440.052,337.601,423.65,351.919,403.904,351.919z"/>
	<path style="fill:#AAB2BD;" d="M99.981,351.919c-19.757,0-36.151-14.317-39.35-33.195c-0.48-2.234-0.64-4.476-0.64-6.796
		c0-22.072,17.917-39.99,39.99-39.99s39.99,17.918,39.99,39.99c0,2.32-0.16,4.562-0.64,6.796
		C136.132,337.601,119.737,351.919,99.981,351.919z"/>
</g>
<g style="opacity:0.5;">
	<path style="fill:#FFFFFF;" d="M68.628,318.723c-0.48-2.234-0.64-4.476-0.64-6.796c0-20.705,15.82-37.553,35.991-39.584
		c-1.336-0.141-2.628-0.406-3.999-0.406c-22.073,0-39.99,17.918-39.99,39.99c0,2.32,0.16,4.562,0.64,6.796
		c3.199,18.878,19.593,33.195,39.35,33.195c1.367,0,2.667-0.227,3.999-0.359C86.065,349.762,71.605,336.296,68.628,318.723z"/>
</g>
<g style="opacity:0.2;">
	<path d="M131.332,305.132c0.48,2.234,0.641,4.476,0.641,6.795c0,20.706-15.82,37.554-35.991,39.585
		c1.335,0.141,2.628,0.406,3.999,0.406c22.073,0,39.99-17.918,39.99-39.991c0-2.319-0.16-4.561-0.64-6.795
		c-3.199-18.879-19.593-33.195-39.35-33.195c-1.367,0-2.667,0.227-3.999,0.359C113.895,274.093,128.357,287.558,131.332,305.132z"/>
</g>
<g style="opacity:0.5;">
	<path style="fill:#FFFFFF;" d="M372.552,318.723c-0.484-2.234-0.641-4.476-0.641-6.796c0-20.705,15.824-37.553,35.992-39.584
		c-1.328-0.141-2.625-0.406-4-0.406c-22.072,0-39.99,17.918-39.99,39.99c0,2.32,0.156,4.562,0.641,6.796
		c3.202,18.878,19.589,33.195,39.35,33.195c1.375,0,2.672-0.227,4-0.359C389.986,349.762,375.536,336.296,372.552,318.723z"/>
</g>
<g style="opacity:0.2;">
	<path d="M435.256,305.132c0.484,2.234,0.64,4.476,0.64,6.795c0,20.706-15.824,37.554-35.991,39.585
		c1.344,0.141,2.625,0.406,3.999,0.406c22.073,0,39.991-17.918,39.991-39.991c0-2.319-0.156-4.561-0.641-6.795
		c-3.202-18.879-19.589-33.195-39.351-33.195c-1.358,0-2.671,0.227-3.999,0.359C417.823,274.093,432.289,287.558,435.256,305.132z"
		/>
</g>
<path style="fill:#FC6E51;" d="M59.99,311.927c0,2.32,0.16,4.562,0.64,6.796l-8.639,1.202c0,0-31.993-3.998-39.991-7.998
	c-7.998-3.999-7.998-7.998-7.998-7.998v-23.994v-15.996L12,247.943l39.991-15.996L12,223.949c0,0,23.995-23.995,63.985-39.991
	v-7.999v-7.998l23.994,7.998c0,0,2.718-0.96,7.998-2.479v10.478c0,0,15.996,31.993,55.987,31.993c5.038,0,27.513,0,55.987,0
	c58.544,0,142.43,0,152.35,0c0.641,0.48,0.969,0.718,0.969,0.718l118.612,23.276l5.358,7.998h-53.347l15.998,7.998l47.988,7.998
	v43.989c0,0,0,6.397-7.998,7.999c-7.998,1.593-47.988,3.998-47.988,3.998l-8.639-1.202c0.484-2.234,0.641-4.476,0.641-6.796
	c0-22.072-17.918-39.99-39.991-39.99c-22.072,0-39.99,17.918-39.99,39.99c0,2.32,0.156,4.562,0.641,6.796l-8.639,1.202H147.969
	l-8.638-1.202c0.48-2.234,0.64-4.476,0.64-6.796c0-22.072-17.917-39.99-39.99-39.99C77.907,271.937,59.99,289.855,59.99,311.927z"/>
<g style="opacity:0.3;">
	<path style="fill:#FFFFFF;" d="M83.984,188.328V175.96v-5.331l-7.998-2.667v7.998v7.999
		c-39.991,15.996-63.985,39.991-63.985,39.991l7.857,1.569C19.858,225.518,49.742,199.954,83.984,188.328z"/>
	<path style="fill:#FFFFFF;" d="M12.001,303.929v-23.994v-15.996l7.998-15.996h-7.998l-7.998,15.996v15.996v23.994
		c0,0,0,3.999,7.998,7.998c7.998,4,39.991,7.998,39.991,7.998l3.917-0.547c-8.854-1.218-29.665-4.326-35.91-7.451
		C12.001,307.928,12.001,303.929,12.001,303.929z"/>
</g>
<g style="opacity:0.2;">
	<path d="M489.244,247.943h7.998l-5.358-7.998l-118.612-23.276c0,0-0.328-0.238-0.969-0.718c-1.344,0-4.155,0-7.998,0
		c0.641,0.48,0.969,0.718,0.969,0.718L489.244,247.943z"/>
	<path d="M499.881,263.939v43.989c0,0,0,6.397-7.998,7.999c-6.171,1.233-31.259,2.937-42.475,3.654l2.484,0.344
		c0,0,39.99-2.405,47.988-3.998c7.998-1.602,7.998-7.999,7.998-7.999v-43.989H499.881z"/>
</g>
<g style="opacity:0.2;">
	<path style="fill:#FFFFFF;" d="M250.558,215.951c5.483,0,11.009,0,16.566,0l12.309-45.993c-5.045-1.574-10.185-3.007-15.418-4.272
		L250.558,215.951z"/>
</g>
<g style="opacity:0.2;">
	<path style="fill:#FFFFFF;" d="M271.263,215.951c1.375,0,2.75,0,4.141,0l11.653-43.537c-1.25-0.434-2.516-0.859-3.796-1.277
		L271.263,215.951z"/>
</g>
<g style="opacity:0.2;">
	<path style="fill:#FFFFFF;" d="M166.988,162.713l-14.017,52.304c3.464,0.551,7.081,0.934,10.994,0.934c1.027,0,2.945,0,5.319,0
		l14.665-54.729C178.001,161.639,172.35,162.143,166.988,162.713z"/>
</g>
<g style="opacity:0.2;">
	<path style="fill:#FFFFFF;" d="M173.424,215.951c1.301,0,2.632,0,4.144,0l14.801-55.245c-1.433,0.078-2.808,0.172-4.21,0.258
		L173.424,215.951z"/>
</g>
<g>
	<path style="fill:#3A3847;" d="M451.893,323.925c-2.102,0-3.866-1.641-3.991-3.766c-0.133-2.202,1.546-4.092,3.749-4.225
		c13.739-0.82,41.334-2.711,47.441-3.93c4.733-0.953,4.788-4.046,4.788-4.077v-42.778l-14.402-21.601l-116.996-23.002
		c-0.57-0.113-1.117-0.352-1.594-0.699c-0.758-0.559-77.185-55.886-150.94-55.886c-74.271,0-118.171,15.598-118.608,15.758
		c-0.844,0.3-1.773,0.316-2.629,0.031l-23.994-7.999c-2.093-0.695-3.226-2.96-2.526-5.057c0.695-2.093,2.944-3.222,5.057-2.527
		l22.706,7.568c8.053-2.706,50.551-15.773,119.995-15.773c73.349,0,146.379,50.766,154.94,56.905l117.769,23.151
		c1.046,0.207,1.96,0.82,2.554,1.706l15.996,23.994c0.438,0.656,0.672,1.43,0.672,2.219v43.989c0,3.343-2.343,10.139-11.208,11.919
		c-8.178,1.641-46.896,3.969-48.535,4.07C452.049,323.925,451.971,323.925,451.893,323.925z"/>
	<path style="fill:#3A3847;" d="M51.992,323.925c-0.164,0-0.332-0.016-0.5-0.031c-3.347-0.422-32.914-4.219-41.279-8.389
		C0.492,310.655,0,305.007,0,303.929v-39.99c0-0.621,0.145-1.234,0.422-1.789l7.576-15.152v-23.049c0-1.062,0.422-2.078,1.172-2.828
		c1.004-1.004,25.037-24.76,65.328-40.877c2.035-0.824,4.378,0.172,5.198,2.23c0.82,2.05-0.18,4.378-2.23,5.198
		c-33.925,13.571-56.252,33.145-61.47,37.991v22.28c0,0.621-0.145,1.234-0.421,1.789l-7.577,15.153v39.014
		c0.02-0.219,0.75,1.938,5.784,4.452c6.061,3.022,29.993,6.515,38.702,7.608c2.191,0.272,3.745,2.272,3.472,4.467
		C55.702,322.441,53.98,323.925,51.992,323.925z"/>
	<path style="fill:#3A3847;" d="M355.916,323.925H147.965c-2.21,0-3.999-1.789-3.999-4c0-2.21,1.789-3.998,3.999-3.998h207.951
		c2.211,0,3.999,1.788,3.999,3.998C359.915,322.136,358.127,323.925,355.916,323.925z"/>
	<path style="fill:#3A3847;" d="M259.938,243.944h-15.996c-2.21,0-3.999-1.789-3.999-3.999c0-2.211,1.789-3.999,3.999-3.999h15.996
		c2.211,0,3.999,1.788,3.999,3.999C263.937,242.155,262.149,243.944,259.938,243.944z"/>
	<path style="fill:#3A3847;" d="M171.96,243.944h-15.996c-2.21,0-3.999-1.789-3.999-3.999c0-2.211,1.789-3.999,3.999-3.999h15.996
		c2.21,0,3.999,1.788,3.999,3.999C175.959,242.155,174.17,243.944,171.96,243.944z"/>
	<path style="fill:#3A3847;" d="M355.916,219.95H163.961c-41.978,0-58.865-32.805-59.564-34.203
		c-0.984-1.972-0.188-4.366,1.781-5.358c1.984-0.996,4.37-0.195,5.37,1.773c0.613,1.214,15.497,29.79,52.414,29.79h191.954
		c2.211,0,3.999,1.789,3.999,4C359.915,218.161,358.127,219.95,355.916,219.95z"/>
	<path style="fill:#3A3847;" d="M75.982,179.959c-2.211,0-3.999-1.788-3.999-3.999v-7.998c0-2.21,1.788-3.999,3.999-3.999
		c2.21,0,3.999,1.789,3.999,3.999v7.998C79.982,178.17,78.192,179.959,75.982,179.959z"/>
	<path style="fill:#3A3847;" d="M27.994,283.934H3.999c-2.21,0-3.999-1.788-3.999-3.999c0-2.21,1.789-3.999,3.999-3.999h23.995
		c2.21,0,3.999,1.789,3.999,3.999C31.993,282.146,30.204,283.934,27.994,283.934z"/>
	<path style="fill:#3A3847;" d="M11.997,251.942c-1.585,0-3.089-0.949-3.714-2.515c-0.82-2.05,0.18-4.378,2.23-5.198l39.99-15.996
		c2.035-0.824,4.378,0.175,5.198,2.229c0.82,2.05-0.18,4.378-2.23,5.198l-39.99,15.996
		C12.997,251.852,12.493,251.942,11.997,251.942z"/>
	<path style="fill:#3A3847;" d="M51.992,235.946c-0.257,0-0.523-0.023-0.789-0.078l-39.991-7.998
		c-2.164-0.434-3.57-2.539-3.136-4.706c0.43-2.164,2.523-3.581,4.706-3.136l39.991,7.998c2.164,0.433,3.569,2.538,3.136,4.706
		C55.53,234.633,53.858,235.946,51.992,235.946z"/>
	<path style="fill:#3A3847;" d="M219.944,211.951c-1.867,0-3.538-1.312-3.917-3.214l-7.998-39.991
		c-0.434-2.167,0.972-4.272,3.136-4.706c2.203-0.461,4.272,0.969,4.706,3.136l7.998,39.991c0.434,2.167-0.973,4.272-3.136,4.706
		C220.468,211.928,220.202,211.951,219.944,211.951z"/>
	<path style="fill:#3A3847;" d="M507.887,267.938c-0.219,0-0.445-0.016-0.664-0.055l-47.988-7.998
		c-2.179-0.363-3.655-2.421-3.288-4.601c0.367-2.183,2.444-3.683,4.601-3.288l47.988,7.998c2.179,0.363,3.655,2.421,3.288,4.601
		C511.496,266.548,509.801,267.938,507.887,267.938z"/>
	<path style="fill:#3A3847;" d="M459.891,259.94c-0.602,0-1.211-0.137-1.789-0.422l-15.996-7.998
		c-1.976-0.988-2.772-3.39-1.788-5.366c0.991-1.972,3.397-2.765,5.365-1.788l15.996,7.998c1.977,0.988,2.773,3.39,1.789,5.366
		C462.765,259.131,461.351,259.94,459.891,259.94z"/>
	<path style="fill:#3A3847;" d="M497.226,251.942h-53.331c-2.211,0-3.999-1.789-3.999-3.999c0-2.21,1.788-3.999,3.999-3.999h53.331
		c2.21,0,3.999,1.789,3.999,3.999S499.436,251.942,497.226,251.942z"/>
	<path style="fill:#3A3847;" d="M404.146,315.927c-2.21,0-4.038-1.789-4.038-4c0-2.21,1.75-3.999,3.952-3.999h0.086
		c2.203,0,3.999,1.789,3.999,3.999C408.145,314.138,406.349,315.927,404.146,315.927z"/>
	<path style="fill:#3A3847;" d="M403.904,355.918c-24.252,0-43.989-19.73-43.989-43.99s19.737-43.989,43.989-43.989
		s43.99,19.729,43.99,43.989S428.156,355.918,403.904,355.918z M403.904,275.936c-19.847,0-35.991,16.145-35.991,35.991
		c0,19.848,16.145,35.992,35.991,35.992c19.848,0,35.992-16.145,35.992-35.992C439.896,292.081,423.752,275.936,403.904,275.936z"/>
	<path style="fill:#3A3847;" d="M403.904,299.93c-2.21,0-3.999-1.788-3.999-3.999v-7.998c0-2.21,1.789-3.999,3.999-3.999
		c2.211,0,4,1.789,4,3.999v7.998C407.904,298.142,406.115,299.93,403.904,299.93z"/>
	<path style="fill:#3A3847;" d="M403.904,339.921c-2.21,0-3.999-1.789-3.999-4v-7.998c0-2.21,1.789-3.998,3.999-3.998
		c2.211,0,4,1.788,4,3.998v7.998C407.904,338.132,406.115,339.921,403.904,339.921z"/>
	<path style="fill:#3A3847;" d="M387.908,315.927h-7.998c-2.21,0-3.999-1.789-3.999-4c0-2.21,1.789-3.999,3.999-3.999h7.998
		c2.211,0,3.999,1.789,3.999,3.999C391.907,314.138,390.119,315.927,387.908,315.927z"/>
	<path style="fill:#3A3847;" d="M427.898,315.927H419.9c-2.21,0-3.998-1.789-3.998-4c0-2.21,1.788-3.999,3.998-3.999h7.998
		c2.211,0,4,1.789,4,3.999C431.898,314.138,430.109,315.927,427.898,315.927z"/>
	<path style="fill:#3A3847;" d="M392.594,304.617c-1.023,0-2.046-0.391-2.827-1.172l-5.655-5.654c-1.562-1.562-1.562-4.093,0-5.655
		s4.093-1.562,5.655,0l5.654,5.655c1.562,1.562,1.562,4.093,0,5.654C394.64,304.226,393.618,304.617,392.594,304.617z"/>
	<path style="fill:#3A3847;" d="M420.869,332.891c-1.023,0-2.046-0.39-2.827-1.171l-5.655-5.655c-1.562-1.562-1.562-4.093,0-5.655
		s4.093-1.562,5.655,0l5.655,5.655c1.562,1.562,1.562,4.093,0,5.655C422.916,332.502,421.892,332.891,420.869,332.891z"/>
	<path style="fill:#3A3847;" d="M386.939,332.891c-1.022,0-2.046-0.39-2.827-1.171c-1.562-1.562-1.562-4.094,0-5.655l5.655-5.655
		c1.562-1.562,4.093-1.562,5.654,0c1.562,1.562,1.562,4.093,0,5.655l-5.654,5.655C388.986,332.502,387.962,332.891,386.939,332.891z
		"/>
	<path style="fill:#3A3847;" d="M415.214,304.617c-1.023,0-2.047-0.391-2.828-1.172c-1.562-1.562-1.562-4.092,0-5.654l5.655-5.655
		c1.562-1.562,4.093-1.562,5.655,0s1.562,4.093,0,5.655l-5.655,5.654C417.26,304.226,416.237,304.617,415.214,304.617z"/>
	<path style="fill:#3A3847;" d="M100.215,315.927c-2.207,0-4.038-1.789-4.038-4c0-2.21,1.75-3.999,3.96-3.999h0.078
		c2.21,0,3.999,1.789,3.999,3.999C104.214,314.138,102.425,315.927,100.215,315.927z"/>
	<path style="fill:#3A3847;" d="M99.977,355.918c-24.252,0-43.982-19.73-43.982-43.99s19.73-43.989,43.982-43.989
		c24.256,0,43.989,19.729,43.989,43.989S124.232,355.918,99.977,355.918z M99.977,275.936c-19.843,0-35.983,16.145-35.983,35.991
		c0,19.848,16.141,35.992,35.983,35.992c19.847,0,35.991-16.145,35.991-35.992C135.968,292.081,119.823,275.936,99.977,275.936z"/>
	<path style="fill:#3A3847;" d="M99.977,299.93c-2.21,0-3.999-1.788-3.999-3.999v-7.998c0-2.21,1.789-3.999,3.999-3.999
		s3.999,1.789,3.999,3.999v7.998C103.976,298.142,102.187,299.93,99.977,299.93z"/>
	<path style="fill:#3A3847;" d="M99.977,339.921c-2.21,0-3.999-1.789-3.999-4v-7.998c0-2.21,1.789-3.998,3.999-3.998
		s3.999,1.788,3.999,3.998v7.998C103.976,338.132,102.187,339.921,99.977,339.921z"/>
	<path style="fill:#3A3847;" d="M83.981,315.927h-7.99c-2.211,0-3.999-1.789-3.999-4c0-2.21,1.788-3.999,3.999-3.999h7.99
		c2.21,0,3.999,1.789,3.999,3.999C87.98,314.138,86.19,315.927,83.981,315.927z"/>
	<path style="fill:#3A3847;" d="M123.971,315.927h-7.998c-2.21,0-3.999-1.789-3.999-4c0-2.21,1.789-3.999,3.999-3.999h7.998
		c2.21,0,3.999,1.789,3.999,3.999C127.97,314.138,126.181,315.927,123.971,315.927z"/>
	<path style="fill:#3A3847;" d="M88.667,304.617c-1.023,0-2.047-0.391-2.828-1.172l-5.655-5.654c-1.562-1.562-1.562-4.093,0-5.655
		s4.093-1.562,5.655,0l5.655,5.655c1.562,1.562,1.562,4.093,0,5.654C90.713,304.226,89.69,304.617,88.667,304.617z"/>
	<path style="fill:#3A3847;" d="M116.941,332.891c-1.023,0-2.047-0.39-2.828-1.171l-5.655-5.655c-1.562-1.562-1.562-4.093,0-5.655
		s4.093-1.562,5.655,0l5.655,5.655c1.562,1.562,1.562,4.093,0,5.655C118.987,332.502,117.964,332.891,116.941,332.891z"/>
	<path style="fill:#3A3847;" d="M83.012,332.891c-1.023,0-2.046-0.39-2.827-1.171c-1.562-1.562-1.562-4.094,0-5.655l5.655-5.655
		c1.562-1.562,4.093-1.562,5.655,0s1.562,4.093,0,5.655l-5.655,5.655C85.058,332.502,84.035,332.891,83.012,332.891z"/>
	<path style="fill:#3A3847;" d="M111.286,304.617c-1.023,0-2.046-0.391-2.827-1.172c-1.562-1.562-1.562-4.092,0-5.654l5.655-5.655
		c1.562-1.562,4.093-1.562,5.655,0s1.562,4.093,0,5.655l-5.655,5.654C113.333,304.226,112.31,304.617,111.286,304.617z"/>
</g>
<g>
</g>
<g>
</g>
<g>
</g>
<g>
</g>
<g>
</g>
<g>
</g>
<g>
</g>
<g>
</g>
<g>
</g>
<g>
</g>
<g>
</g>
<g>
</g>
<g>
</g>
<g>
</g>
<g>
</g>
</svg>
