<?xml version="1.0" encoding="iso-8859-1"?>
<!-- Generator: Adobe Illustrator 19.0.0, SVG Export Plug-In . SVG Version: 6.00 Build 0)  -->
<svg version="1.1" id="Layer_1" xmlns="http://www.w3.org/2000/svg" xmlns:xlink="http://www.w3.org/1999/xlink" x="0px" y="0px"
	 viewBox="0 0 512 512" style="enable-background:new 0 0 512 512;" xml:space="preserve">
<path style="fill:#FFD782;" d="M452.962,110.939H59.038c-28.272,0-51.19,22.918-51.19,51.19v187.743
	c0,28.272,22.918,51.19,51.19,51.19h393.924c28.272,0,51.19-22.918,51.19-51.19V162.129
	C504.152,133.857,481.233,110.939,452.962,110.939z"/>
<path style="fill:#FFFFFF;" d="M59.038,364.437c-8.031,0-14.566-6.534-14.566-14.566V162.129c0-8.031,6.535-14.566,14.566-14.566
	h393.925c8.031,0,14.565,6.535,14.565,14.566v187.742c0,8.032-6.534,14.566-14.565,14.566L59.038,364.437L59.038,364.437z"/>
<g>
	<path style="fill:#249ED9;" d="M452.962,147.563H59.038c-8.031,0-14.566,6.535-14.566,14.566v37.754l0,0h423.055v-37.754
		C467.527,154.098,460.993,147.563,452.962,147.563z"/>
	<path style="fill:#249ED9;" d="M44.472,312.118v37.754c0,8.032,6.535,14.566,14.566,14.566h393.925
		c8.031,0,14.565-6.534,14.565-14.566v-37.754L44.472,312.118L44.472,312.118z"/>
</g>
<path style="opacity:0.1;enable-background:new    ;" d="M90.514,349.872V162.129c0-28.272,22.918-51.19,51.19-51.19H59.038
	c-28.272,0-51.19,22.918-51.19,51.19v187.743c0,28.272,22.918,51.19,51.19,51.19h82.666
	C113.432,401.061,90.514,378.143,90.514,349.872z"/>
<path d="M59.038,408.909h317.623c4.334,0,7.848-3.513,7.848-7.848c0-4.335-3.514-7.848-7.848-7.848H59.038
	c-23.899,0-43.342-19.442-43.342-43.341V162.129c0-23.899,19.443-43.342,43.342-43.342h48.425c4.334,0,7.848-3.513,7.848-7.848
	c0-4.335-3.514-7.848-7.848-7.848H59.038C26.484,103.091,0,129.575,0,162.129v187.743C0,382.426,26.484,408.909,59.038,408.909z"/>
<path d="M452.962,103.091H138.855c-4.334,0-7.848,3.513-7.848,7.848c0,4.335,3.514,7.848,7.848,7.848h314.107
	c23.899,0,43.342,19.443,43.342,43.342v187.743c0,23.899-19.443,43.341-43.342,43.341h-44.909c-4.334,0-7.848,3.513-7.848,7.848
	c0,4.335,3.514,7.848,7.848,7.848h44.909c32.554,0,59.038-26.484,59.038-59.037V162.129
	C512,129.575,485.516,103.091,452.962,103.091z"/>
<path d="M36.624,162.129v187.742c0,12.359,10.055,22.414,22.414,22.414h393.925c12.359,0,22.413-10.055,22.413-22.414V162.129
	c0-12.359-10.054-22.414-22.413-22.414H59.038C46.679,139.715,36.624,149.771,36.624,162.129z M459.679,349.871
	c0,3.704-3.013,6.718-6.717,6.718H59.038c-3.704,0-6.718-3.014-6.718-6.718v-29.906h407.359V349.871z M459.679,304.269H52.32
	v-96.538h407.359V304.269z M459.679,162.129v29.906H52.32v-29.906c0-3.704,3.014-6.718,6.718-6.718h393.925
	C456.666,155.411,459.679,158.425,459.679,162.129z"/>
<path d="M82.711,283.265H98.25l2.187,14.618h12.777l-12.892-80.573H81.79l-12.892,80.573h11.626L82.711,283.265z M90.423,231.582
	l6.101,40.747H84.322L90.423,231.582z"/>
<path d="M162.593,278.774v-6.562c0-8.518-2.647-14.618-9.439-17.266c5.64-2.647,8.172-7.942,8.172-16.23v-2.878
	c0-12.431-5.64-18.532-18.762-18.532h-19.107v80.573h19.913C156.032,297.882,162.593,291.206,162.593,278.774z M136.119,228.819
	h6.101c4.489,0,6.446,2.532,6.446,8.287v4.488c0,6.446-2.878,8.519-7.597,8.519h-4.949L136.119,228.819L136.119,228.819z
	 M136.119,261.624h5.64c5.755,0,8.172,2.302,8.172,9.784v7.022c0,5.985-2.302,7.942-6.561,7.942h-7.252V261.624z"/>
<path d="M192.404,298.803c12.431,0,18.877-7.367,18.877-20.258v-10.704H199.31v11.51c0,5.755-2.532,7.826-6.561,7.826
	s-6.561-2.071-6.561-7.826v-43.51c0-5.755,2.532-7.942,6.561-7.942s6.561,2.187,6.561,7.942v8.633h11.971v-7.827
	c0-12.892-6.446-20.258-18.877-20.258c-12.431,0-18.877,7.367-18.877,20.258v41.898
	C173.527,291.436,179.972,298.803,192.404,298.803z"/>
<rect x="245.004" y="251.838" width="23.021" height="11.51"/>
<path d="M320.857,297.882h12.661v-80.573h-8.518c-1.957,5.41-4.144,10.129-13.929,10.129v8.978h9.785V297.882z"/>
<path d="M389.803,286.371h-23.942c-0.115-0.576-0.115-1.151-0.115-1.727c0-13.237,25.209-22.676,25.209-47.998
	c0-12.892-6.446-20.258-18.877-20.258s-18.877,7.367-18.877,20.258v7.827h11.97v-8.633c0-5.755,2.532-7.942,6.562-7.942
	c4.029,0,6.561,1.957,6.561,9.208c0,23.251-25.092,27.165-25.092,50.876v9.899h36.602v-11.51H389.803z"/>
<path d="M421.342,298.803c12.431,0,18.877-7.367,18.877-20.258v-6.331c0-8.172-2.532-14.158-8.863-16.92
	c6.1-2.532,8.863-7.942,8.863-16.575v-2.072c0-12.892-6.446-20.258-18.877-20.258c-12.431,0-18.877,7.367-18.877,20.258v4.374h11.97
	v-5.18c0-5.755,2.533-7.942,6.562-7.942s6.561,1.957,6.561,9.208v4.488c0,6.446-2.878,8.519-7.597,8.519h-4.948v11.51h4.258
	c5.755,0,8.288,2.764,8.288,10.244v6.331c0,7.136-2.532,9.093-6.561,9.093s-6.562-2.187-6.562-7.942v-7.482h-11.97v6.676
	C402.465,291.436,408.911,298.803,421.342,298.803z"/>
<circle cx="128.938" cy="173.86" r="8.598"/>
<circle cx="128.938" cy="338.313" r="8.598"/>
<circle cx="383.067" cy="173.86" r="8.598"/>
<circle cx="383.067" cy="338.313" r="8.598"/>
<g>
</g>
<g>
</g>
<g>
</g>
<g>
</g>
<g>
</g>
<g>
</g>
<g>
</g>
<g>
</g>
<g>
</g>
<g>
</g>
<g>
</g>
<g>
</g>
<g>
</g>
<g>
</g>
<g>
</g>
</svg>
