<?xml version="1.0" encoding="iso-8859-1"?>
<!-- Generator: Adobe Illustrator 18.0.0, SVG Export Plug-In . SVG Version: 6.00 Build 0)  -->
<!DOCTYPE svg PUBLIC "-//W3C//DTD SVG 1.1//EN" "http://www.w3.org/Graphics/SVG/1.1/DTD/svg11.dtd">
<svg version="1.1" id="Capa_1" xmlns="http://www.w3.org/2000/svg" xmlns:xlink="http://www.w3.org/1999/xlink" x="0px" y="0px"
	 viewBox="0 0 352.33 352.33" style="enable-background:new 0 0 352.33 352.33;" xml:space="preserve">
<g>
	<path style="fill:#59AAD8;" d="M340.314,176.17c0,93.97-76.18,170.15-170.15,170.15c-12.74,0-25.15-1.4-37.09-4.06
		C56.934,325.34,0.004,257.4,0.004,176.17c0-5.91,0.3-11.75,0.89-17.5c8.76-85.76,81.2-152.66,169.27-152.66
		C264.134,6.01,340.314,82.19,340.314,176.17z"/>
	<path style="fill:#E6E6E6;" d="M181.54,206.894c-8.41,43.47-6.84,74.52-4.05,92.91c-10.88,12.73-22.86,24.57-35.86,35.36l-8.56,7.1
		c-25.59-5.69-49-17.13-68.82-32.92C25.1,278.184,0,230.104,0,176.174c0-5.91,0.3-11.75,0.89-17.5c10.22-3.82,20.75-7.15,30.81-10
		c18.48-5.23,36.01-13.14,52.08-23.4c12.12-7.73,23.4-16.79,33.61-27.04c4.69-4.7,9.66-9.11,14.87-13.16
		C132.26,85.074,196.03,132.064,181.54,206.894z"/>
	<path style="fill:#808080;" d="M283.534,122.403c42.243,4.828,68.796,38.622,68.796,38.622s-60.951-21.121-105.004-21.725
		L283.534,122.403z"/>
	<path style="fill:#4D4D4D;" d="M352.33,161.025c-17.477,5.89-46.878,4.333-70.135,1.666c-5.914-0.676-11.719-0.133-17.163,1.448
		L247.326,139.3C291.379,139.903,352.33,161.025,352.33,161.025z"/>
	<path style="fill:#666666;" d="M228.015,64.47c56.726,19.311,55.519,57.933,55.519,57.933L247.326,139.3l17.706,24.839
		c-13.397,3.923-24.489,14.206-29.003,28.182l-2.185,6.759c-12.009,37.113-31.212,71.306-56.352,100.719
		c-2.788-18.394-4.357-49.436,4.055-92.91c14.483-74.83-49.279-121.817-49.279-121.817C159.605,63.83,193.593,52.75,228.015,64.47z"
		/>
	<circle style="fill:#4D4D4D;" cx="240.688" cy="114.558" r="10.259"/>
	<path style="fill:#666666;" d="M64.25,309.334v0.01C25.1,278.184,0,230.104,0,176.174c0-5.91,0.3-11.75,0.89-17.5
		c10.22-3.82,20.75-7.15,30.81-10c18.48-5.23,36.01-13.14,52.08-23.4C83.78,125.274,104.33,220.234,64.25,309.334z"/>
</g>
<g>
</g>
<g>
</g>
<g>
</g>
<g>
</g>
<g>
</g>
<g>
</g>
<g>
</g>
<g>
</g>
<g>
</g>
<g>
</g>
<g>
</g>
<g>
</g>
<g>
</g>
<g>
</g>
<g>
</g>
</svg>
